PathFileType  4	(X/Y/Z) C:\Users\antoi\Documents\MyRepositories\mobilecap\ResultsAnalysis
DataRate	CameraRate	NumFrames	NumMarkers	Units	OrigDataRate	OrigDataStartFrame	OrigNumFrames
100.0	100.0	4	51	mm	100.0	1046	1394
Frame#	Time	r_knee			r_shank_antsup			r_ankle			r_calc			r_5meta			r_toe			L_knee			L_shank_antsup			L_ankle			L_calc			L_5meta			L_toe			r_sh2			r_sh3			r_sh4			L_sh2			L_sh3			r_thigh1			r_thigh2			r_thigh3			r_thigh4			r_thigh5			L_thigh1			L_thigh2			L_thigh3			L_thigh4			r.ASIS			r.PSIS			L.ASIS			L.PSIS			C7			R_Shoulder			L_Shoulder			R_Sternum			L_Sternum			R_humerus			R_elbow_med			R_elbow_lat			R_forearm			R_wrist_radius			R_wrist_ulna			L_humerus			L_elbow_med			L_elbow_lat			L_forearm			L_wrist_radius			L_wrist_ulna			R_HJC			L_HJC			R_HJC_reg			L_HJC_reg			
		X1	Y1	Z1	X2	Y2	Z2	X3	Y3	Z3	X4	Y4	Z4	X5	Y5	Z5	X6	Y6	Z6	X7	Y7	Z7	X8	Y8	Z8	X9	Y9	Z9	X10	Y10	Z10	X11	Y11	Z11	X12	Y12	Z12	X13	Y13	Z13	X14	Y14	Z14	X15	Y15	Z15	X16	Y16	Z16	X17	Y17	Z17	X18	Y18	Z18	X19	Y19	Z19	X20	Y20	Z20	X21	Y21	Z21	X22	Y22	Z22	X23	Y23	Z23	X24	Y24	Z24	X25	Y25	Z25	X26	Y26	Z26	X27	Y27	Z27	X28	Y28	Z28	X29	Y29	Z29	X30	Y30	Z30	X31	Y31	Z31	X32	Y32	Z32	X33	Y33	Z33	X34	Y34	Z34	X35	Y35	Z35	X36	Y36	Z36	X37	Y37	Z37	X38	Y38	Z38	X39	Y39	Z39	X40	Y40	Z40	X41	Y41	Z41	X42	Y42	Z42	X43	Y43	Z43	X44	Y44	Z44	X45	Y45	Z45	X46	Y46	Z46	X47	Y47	Z47	X48	Y48	Z48	X49	Y49	Z49	X50	Y50	Z50	X51	Y51	Z51	

1046	10.45000000	-144.83342	465.68115	-446.31267	-95.05231	394.25303	-459.62878	-258.11334	94.72501	-467.58557	-332.23784	63.19690	-500.91381	-161.20143	45.61975	-427.47873	-112.29085	70.63720	-482.43451	-156.62500	472.48121	-866.96505	-115.49914	382.17719	-881.45956	-250.38128	97.48242	-868.79737	-318.82047	61.62505	-827.12700	-146.53586	43.61775	-912.87356	-104.79250	67.84221	-859.29902	-149.13274	292.60011	-440.42935	-164.22727	426.60522	-430.27006	-213.94208	326.26596	-427.39661	-200.58242	411.41640	-880.00010	-231.12147	292.61779	-891.71150	-381.82810	681.52950	-456.24557	-287.52258	620.33660	-449.98457	-301.93486	559.81157	-423.99362	-444.46317	587.76349	-444.92595	-343.94682	525.92410	-438.30804	-369.54283	642.97245	-877.33028	-246.98033	579.18043	-874.78615	-422.74905	544.04661	-839.80051	-294.77619	485.05661	-851.12913	-374.24984	703.24567	-525.73120	-526.64109	814.21969	-596.26265	-376.48327	708.09483	-770.91764	-530.51974	824.71480	-689.55521	-257.82655	1131.13969	-623.83165	-168.26635	1079.27108	-471.76434	-177.09897	1093.71727	-785.45933	-149.35891	1030.75665	-604.12466	-144.42267	1027.76301	-645.64063	-139.23960	984.61687	-385.76939	-121.17775	763.77836	-371.97605	-86.29122	807.98745	-313.18259	5.37978	857.74375	-405.43526	80.16768	896.01664	-498.61675	104.91990	871.02560	-498.23923	-157.60571	1012.48118	-873.13585	-146.81372	777.01552	-908.85498	-126.94898	833.72898	-969.29117	-49.76622	869.64288	-901.16708	59.93428	901.10421	-809.12110	80.93859	878.33688	-823.43884	-473.37479	659.77728	-547.52467	-475.64280	670.25777	-753.71704	-465.42896	657.60352	-561.12448	-472.11050	675.68289	-721.83415	
1047	10.46000000	-145.31475	465.57057	-446.92265	-95.12390	394.30810	-459.91938	-258.18550	94.69451	-467.71804	-332.23232	63.19434	-500.94116	-161.21936	45.65199	-427.49101	-112.29828	70.72969	-482.45437	-156.29843	471.79612	-868.25526	-114.78964	381.48712	-882.47998	-250.34591	97.36698	-868.81413	-318.81468	61.62891	-827.11317	-146.53563	43.54140	-912.87490	-104.77418	67.83202	-859.38331	-149.06761	292.71351	-440.70366	-164.27059	426.74605	-430.79173	-214.22019	326.57529	-427.90713	-199.88204	411.09825	-881.47676	-230.59187	292.29975	-892.65616	-385.86438	677.50574	-457.69470	-290.39117	617.55985	-451.43591	-304.01053	556.90639	-425.23826	-446.90469	582.56123	-446.21453	-345.40242	522.33419	-439.03695	-372.24707	638.47809	-878.79998	-248.59143	576.79181	-875.96216	-423.61060	538.54884	-841.59709	-294.53178	481.94562	-852.68954	-377.29904	697.55713	-527.57329	-529.93480	807.30275	-598.23145	-379.07710	701.98761	-772.03693	-533.67131	817.66034	-691.44827	-260.46936	1123.85322	-625.15386	-170.87362	1072.45551	-473.11239	-178.71983	1086.78556	-786.48640	-152.04803	1023.37873	-604.95837	-147.07070	1020.26745	-646.65760	-141.39993	978.19470	-387.08181	-122.19416	757.39958	-373.02627	-87.48343	801.89360	-314.41475	3.96586	851.86274	-406.87471	78.56552	890.34381	-499.92625	103.38470	865.57023	-500.24985	-158.18564	1005.91937	-874.10593	-145.20856	770.71614	-910.21171	-125.78576	827.89509	-970.81863	-49.26057	863.84591	-901.60669	59.65082	895.38113	-808.64788	80.91898	872.87322	-822.94051	-475.98228	653.35683	-549.11868	-477.92013	663.52099	-755.33022	-467.96228	651.41552	-562.97977	-474.38635	669.22272	-723.24243	
1048	10.47000000	-145.81796	465.44931	-447.56502	-95.21905	394.38657	-460.14908	-258.21259	94.70168	-467.71198	-332.23678	63.19665	-500.97356	-161.23353	45.68219	-427.49966	-112.29443	70.82829	-482.49003	-155.96554	471.14958	-869.58513	-114.19930	380.95631	-883.40822	-250.32763	97.32153	-868.86428	-318.81100	61.63077	-827.10444	-146.53672	43.46742	-912.88779	-104.76363	67.82933	-859.47663	-149.11658	292.78789	-441.04932	-164.30591	426.77621	-431.22816	-214.42619	326.67792	-428.42229	-199.25193	410.78932	-882.69322	-230.19055	291.94484	-893.22553	-389.70827	673.40549	-458.98797	-293.16901	614.81508	-452.84712	-305.94256	554.01466	-426.37402	-449.14568	577.46916	-447.22132	-346.88707	518.81556	-439.77662	-374.90091	633.96201	-880.22082	-250.09696	574.46435	-877.33139	-424.50738	533.12496	-843.54851	-294.34032	478.90694	-854.31331	-380.32950	691.83095	-529.31084	-533.28423	800.27307	-600.20434	-381.61168	695.94903	-773.17541	-536.86452	810.52483	-693.35787	-263.19396	1116.65487	-626.48635	-173.66841	1065.68509	-474.43148	-180.45674	1079.82568	-787.37114	-154.84542	1016.01183	-605.91159	-149.84420	1012.78557	-647.63104	-143.76264	971.73580	-388.44497	-123.39187	751.10540	-373.95868	-88.65018	795.91613	-315.62839	2.42327	846.17472	-408.35160	76.72532	884.77818	-501.53404	101.70258	860.12062	-501.89174	-158.91669	999.38984	-875.04911	-143.85299	764.55610	-911.95054	-124.48725	822.08056	-972.22409	-48.82566	858.18662	-902.15724	59.30795	889.91193	-808.13258	80.90304	867.69493	-822.56455	-478.55234	646.85431	-550.73237	-480.09346	656.76078	-756.95949	-470.46045	645.11131	-564.78936	-476.60582	662.70798	-724.68241	
1049	10.48000000	-146.32644	465.35220	-448.08155	-95.28927	394.43770	-460.25735	-258.22124	94.76686	-467.64049	-332.24855	63.19565	-500.99819	-161.25042	45.69973	-427.51274	-112.29550	70.94018	-482.48334	-155.72599	470.49620	-870.75826	-113.79269	380.72861	-884.55129	-250.29611	97.28616	-868.89506	-318.79971	61.63347	-827.09124	-146.52191	43.43965	-912.93407	-104.75598	67.83067	-859.54612	-149.34861	292.83160	-441.39046	-164.36237	426.70613	-431.54495	-214.47757	326.19001	-428.95532	-198.71636	410.49370	-883.68441	-229.82479	291.58108	-893.76406	-393.24806	669.08314	-460.26267	-296.20088	612.14317	-454.38468	-307.78915	551.11764	-427.43664	-451.29768	572.41622	-448.13220	-348.32413	515.23343	-440.71353	-377.47444	629.40339	-881.79274	-251.67420	572.20743	-878.68966	-425.49891	527.72984	-845.35720	-294.29394	475.92402	-856.00078	-383.33949	686.02908	-531.04151	-536.70438	793.15008	-602.21899	-384.17247	689.86996	-774.24873	-540.12277	803.28563	-695.21015	-266.02465	1109.53648	-627.89865	-176.67407	1059.00865	-475.71826	-182.36941	1072.77222	-788.08265	-157.82555	1008.45028	-607.12765	-152.69975	1005.32484	-648.60492	-146.26110	965.45148	-389.70653	-124.57077	744.97509	-374.92871	-89.93347	790.08455	-316.80635	0.65910	840.63817	-409.76286	74.60144	879.22563	-503.56323	99.85988	854.72887	-502.89080	-159.77272	992.87992	-875.97782	-143.50399	757.59657	-915.58487	-123.05614	816.59833	-973.82922	-48.41316	852.62856	-902.64016	59.00449	884.69719	-807.65581	80.89988	862.81213	-822.20464	-481.11652	640.26838	-552.32343	-482.26398	649.91977	-758.56540	-472.94350	638.73703	-566.58380	-478.80625	656.12023	-726.06973	
